<?xml version="1.0" encoding="iso-8859-1"?>
<!-- Generator: Adobe Illustrator 16.0.0, SVG Export Plug-In . SVG Version: 6.00 Build 0)  -->
<!DOCTYPE svg PUBLIC "-//W3C//DTD SVG 1.1//EN" "http://www.w3.org/Graphics/SVG/1.1/DTD/svg11.dtd">
<svg version="1.1" id="Capa_1" xmlns="http://www.w3.org/2000/svg" xmlns:xlink="http://www.w3.org/1999/xlink" x="0px" y="0px"
	 width="55.26px" height="55.26px" viewBox="0 0 55.26 55.26" style="enable-background:new 0 0 55.26 55.26;" xml:space="preserve"
	>
<g>
	<path d="M19.912,34.967c-3.313,0-4-0.426-4-0.949c0-0.525,9.084-1.473,18.525-2.805c9.44-1.334,14.926-2.844,14.926-2.844
		c1.896-0.304,3.207-1.798,3.258-3.715V12.956c-0.006-1.954-0.987-3.12-3.526-3.528c-2.539-0.408-8.028-1.549-17.778-1.361
		C20.129,7.58,13.912,8.828,13.912,8.088V6.75c-0.01-2.391-1.924-4.302-4.31-4.312h-6.86C1.228,2.438,0,3.667,0,5.181
		c0,1.515,1.229,2.743,2.742,2.743c0,0,1.273,0,2.841,0c1.569,0,2.842,2.687,2.842,6c0,0-0.83,2.204-1,9.579
		c-0.17,7.375,1,12.642,1,12.642c0.013,2.39,1.924,4.3,4.313,4.31h39.78c1.514,0,2.742-1.229,2.742-2.744s-1.229-2.742-2.742-2.742
		L19.912,34.967z"/>
	<path d="M20.902,41.979c-2.995,0-5.422,2.429-5.422,5.42c0,2.995,2.427,5.424,5.422,5.424c2.993,0,5.422-2.429,5.422-5.424
		C26.324,44.406,23.896,41.979,20.902,41.979z"/>
	<path d="M47.031,41.979c-2.994,0-5.422,2.429-5.422,5.42c0,2.995,2.428,5.424,5.422,5.424c2.992,0,5.422-2.429,5.422-5.424
		C52.453,44.406,50.023,41.979,47.031,41.979z"/>
	<path d="M20.537,27.253h-1.304c-0.974,0-1.462-0.778-1.763-1.764c0,0-0.646-2.522-0.646-5.461c0-2.94,0.646-6.512,0.646-6.512
		c0.289-0.966,0.789-1.764,1.763-1.764h1.304c0.974,0,1.431,0.735,1.764,1.764c0,0,0.585,3.484,0.601,6.512
		c0.03,2.703-0.601,5.461-0.601,5.461C21.992,26.484,21.511,27.253,20.537,27.253z"/>
	<path d="M29.197,26.503H28.02c-0.879,0-1.32-0.703-1.592-1.593c0,0-0.584-2.278-0.584-4.933c0-2.655,0.584-5.882,0.584-5.882
		c0.261-0.872,0.713-1.593,1.592-1.593h1.177c0.881,0,1.293,0.664,1.594,1.593c0,0,0.529,3.147,0.543,5.882
		c0.027,2.441-0.543,4.933-0.543,4.933C30.513,25.81,30.078,26.503,29.197,26.503z"/>
	<path d="M37.372,25.628h-1.03c-0.77,0-1.154-0.615-1.393-1.394c0,0-0.512-1.993-0.512-4.316c0-2.323,0.512-5.146,0.512-5.146
		c0.228-0.763,0.623-1.394,1.393-1.394h1.03c0.771,0,1.131,0.581,1.394,1.394c0,0,0.463,2.754,0.475,5.146
		c0.023,2.137-0.475,4.316-0.475,4.316C38.523,25.021,38.143,25.628,37.372,25.628z"/>
	<path d="M44.689,24.96h-0.918c-0.687,0-1.029-0.548-1.242-1.241c0,0-0.455-1.776-0.455-3.846c0-2.07,0.455-4.586,0.455-4.586
		c0.203-0.68,0.557-1.241,1.242-1.241h0.918c0.686,0,1.006,0.517,1.24,1.241c0,0,0.412,2.454,0.424,4.586
		c0.021,1.903-0.424,3.846-0.424,3.846C45.714,24.419,45.375,24.96,44.689,24.96z"/>
</g>
<g>
</g>
<g>
</g>
<g>
</g>
<g>
</g>
<g>
</g>
<g>
</g>
<g>
</g>
<g>
</g>
<g>
</g>
<g>
</g>
<g>
</g>
<g>
</g>
<g>
</g>
<g>
</g>
<g>
</g>
</svg>
